<svg xmlns="http://www.w3.org/2000/svg" viewBox="0 0 1700 1200"><defs><style>.a{fill:none;stroke:#ed951e;stroke-miterlimit:10;stroke-width:17px;}</style></defs><path class="a" d="M1410-41c14.09,8.85,217.07,141,216,370-1.18,252.52-249.27,380.76-280,396,0,0-132.59,65.18-306,48a201.9,201.9,0,0,1-38-8c-14.3-4.72-32.56-10.73-46-24-21-20.74-26.39-55.36-20-80,13.12-50.56,78.59-69.9,106-78,139.81-41.3,268,51.48,274,56,60,44.81,88.48,98.28,106,132,15.12,29.1,104.47,201.13,42,314-75.75,136.85-351.55,144.88-540,76-166.14-60.73-162.39-143.91-382-224-87.8-32-195.39-69.76-326-44C111.49,913.61,26.79,968.06-12,993a808.11,808.11,0,0,0-130,104"/></svg>